<?xml version="1.0" encoding="UTF-8" standalone="no"?>
<svg width="167px" height="31px" viewBox="0 0 167 31" version="1.1" xmlns="http://www.w3.org/2000/svg" xmlns:xlink="http://www.w3.org/1999/xlink">
    <!-- Generator: Sketch 46.1 (44463) - http://www.bohemiancoding.com/sketch -->
    <title>Group</title>
    <desc>Created with Sketch.</desc>
    <defs></defs>
    <g id="Page-1" stroke="none" stroke-width="1" fill="none" fill-rule="evenodd">
        <g id="iPhone-7" transform="translate(-104.000000, -52.000000)" fill="#FEFEFE">
            <g id="Group" transform="translate(104.037850, 52.000000)">
                <path d="M22.349474,6.29903017 C21.6691178,6.29903017 21.1246776,6.62847473 20.5297542,7.4006344 L10.9581677,19.7824509 C10.6661427,20.153748 10.4983836,20.61067 10.4983836,21.0364905 C10.4983836,21.5318092 10.7647788,22.0497821 11.1938847,22.3895938 L11.2307762,22.4153196 C11.5946425,22.6407088 11.9332673,22.7455321 12.2955802,22.7455321 C12.8761353,22.7455321 13.469117,22.4395096 13.8407499,21.9487985 L20.4839311,13.324109 L20.4839311,27.585065 C20.4839311,28.617171 21.2567101,29.3954741 22.2807394,29.3954741 C23.3443785,29.3954741 24.1462823,28.617171 24.1462823,27.585065 L24.1462823,8.44925105 C24.1462823,7.14299187 23.4410729,6.29903017 22.349474,6.29903017" id="Fill-1"></path>
                <path d="M10.0685559,15.5783852 L3.67960958,7.40101837 C3.07397919,6.62847473 2.52049701,6.29903017 1.82834799,6.29903017 C0.717828066,6.29903017 0,7.14299187 0,8.44925105 L0,27.585065 C0,28.617171 0.800791134,29.3954741 1.86311346,29.3954741 C2.92504073,29.3954741 3.72583186,28.617171 3.72583186,27.585065 L3.72583186,13.3920713 L7.1308732,17.7389732 C7.50618231,18.2254606 8.06717068,18.5046054 8.67003563,18.5046054 C9.01769039,18.5046054 9.402481,18.3871112 9.75329626,18.1743929 L9.79082717,18.1482831 C10.2336919,17.8038638 10.4983836,17.285123 10.4983836,16.7613906 C10.4983836,16.2614643 10.2609512,15.8579139 10.0685559,15.5783852" id="Fill-3"></path>
                <path d="M29.9205603,6.29903017 C29.0228934,6.29903017 28.3456358,7.0777173 28.3456358,8.10982333 L28.3456358,27.585065 C28.3456358,28.617171 29.0228934,29.3954741 29.9205603,29.3954741 C30.8182272,29.3954741 31.4951509,28.617171 31.4951509,27.585065 L31.4951509,8.10982333 C31.4951509,7.0777173 30.8182272,6.29903017 29.9205603,6.29903017" id="Fill-6"></path>
                <path d="M55.942513,6.29903017 C54.9509201,6.29903017 54.1442975,7.11150649 54.1442975,8.10982333 L54.1442975,22.7370848 L42.5327449,7.26778147 C42.0609755,6.63423425 41.407287,6.29903017 40.6426163,6.29903017 C39.7764981,6.29903017 38.8440194,6.961375 38.8440194,8.4150779 L38.8440194,27.585065 C38.8440194,28.5833818 39.6510234,29.3954741 40.6426163,29.3954741 C41.6342092,29.3954741 42.4412132,28.5833818 42.4412132,27.585065 L42.4412132,12.8883053 L54.0531472,28.3268912 L54.0581051,28.3326507 C54.6420008,29.0775486 55.1957673,29.3954741 55.9089514,29.3954741 C56.9874993,29.3954741 57.7411099,28.5530483 57.7411099,27.3473888 L57.7411099,8.10982333 C57.7411099,7.11150649 56.9341059,6.29903017 55.942513,6.29903017" id="Fill-8"></path>
                <path d="M80.2855575,19.06882 C80.2855575,24.0571328 77.0614408,26.918254 71.4397584,26.918254 L67.6077389,26.918254 L67.6077389,10.8763155 L71.6735381,10.8763155 C77.3077038,10.8763155 80.2855575,13.7090742 80.2855575,19.06882 M71.6735381,7.34886853 L65.8241286,7.34886853 C64.8405896,7.34886853 64.0401401,8.17099408 64.0401401,9.18155578 L64.0401401,28.6130138 C64.0401401,29.6235755 64.8405896,30.4453125 65.8241286,30.4453125 L71.4397584,30.4453125 C79.0618079,30.4453125 83.987069,25.97957 83.987069,19.06882 C83.987069,11.7303004 79.3837278,7.34886853 71.6735381,7.34886853" id="Fill-10"></path>
                <path d="M88.1864224,8.76497859 C88.1864224,7.95582734 88.7986196,7.34886853 89.6152675,7.34886853 C90.4319154,7.34886853 91.0441125,7.95582734 91.0441125,8.76497859 L91.0441125,26.6986848 L101.455314,26.6986848 C102.271962,26.6986848 102.884159,27.272072 102.884159,28.0472702 C102.884159,28.8224684 102.271962,29.3954741 101.455314,29.3954741 L89.6152675,29.3954741 C88.7986196,29.3954741 88.1864224,28.7888968 88.1864224,27.9797456 L88.1864224,8.76497859 Z" id="Fill-12"></path>
                <path d="M115.937264,11.9392097 L111.227993,21.4884541 L120.68167,21.4884541 L115.937264,11.9392097 Z M124.134767,28.490753 L121.937449,24.0680089 L109.972213,24.0680089 L107.739761,28.5916146 C107.460655,29.0940268 106.972318,29.3954741 106.414106,29.3954741 C106.16974,29.3954741 105.925769,29.3283595 105.681404,29.2282562 C105.228202,29.0269121 104.983836,28.6249824 104.983836,28.1559379 C104.983836,27.9545939 105.018576,27.7202612 105.158327,27.4521817 L114.64635,8.28695742 C114.995331,7.6169481 115.379052,7.34886853 115.972004,7.34886853 C116.530216,7.34886853 117.018553,7.6169481 117.332794,8.25358967 L126.786076,27.1841021 C126.925432,27.4859286 127.030442,27.753629 127.030442,28.0554555 C127.030442,28.5578677 126.786076,28.9601766 126.297739,29.1945093 C126.053374,29.3283595 125.774268,29.3954741 125.495162,29.3954741 C124.937345,29.3954741 124.413873,29.0602799 124.134767,28.490753 L124.134767,28.490753 Z" id="Fill-14"></path>
                <path d="M131.081095,19.525418 L131.081095,26.7158886 L138.797188,26.7158886 C142.190539,26.7158886 143.833852,25.5966118 143.833852,23.1208452 C143.833852,20.6446948 142.190539,19.525418 138.761209,19.525418 L131.081095,19.525418 Z M131.081095,19.1523257 L131.152649,19.0847699 L131.081095,19.0847699 L131.081095,19.1523257 Z M131.081095,17.2868644 L131.152649,17.2868644 L131.081095,17.2189247 L131.081095,17.2868644 Z M131.081095,9.99467616 L131.081095,16.8799942 L138.225566,16.8799942 C140.976145,16.8799942 142.47635,15.6931616 142.47635,13.4204462 C142.47635,11.1818926 140.976145,9.99467616 138.225566,9.99467616 L131.081095,9.99467616 Z M128.08028,27.9710447 L128.08028,8.77368181 C128.08028,7.99371937 128.759435,7.34886853 129.58089,7.34886853 L138.403844,7.34886853 C143.226655,7.34886853 145.619869,10.0967775 145.619869,13.2845669 C145.619869,15.2859076 144.72686,16.8462163 143.047972,17.8637755 C145.619869,18.6775159 146.977371,20.37332 146.977371,23.0529056 C146.977371,27.1569205 144.155238,29.3954741 138.832763,29.3954741 L129.58089,29.3954741 C128.759435,29.3954741 128.08028,28.7510071 128.08028,27.9710447 L128.08028,27.9710447 Z" id="Fill-16"></path>
                <path d="M158.249254,10.1228437 C155.726024,10.1228437 153.58298,11.2327478 153.58298,13.5216305 C153.58298,15.7065088 155.104115,16.5389369 159.009235,17.4059022 C164.262998,18.5848809 166.9243,20.527213 166.9243,24.0986865 C166.9243,28.2608267 163.502626,30.4453125 158.836743,30.4453125 C155.622372,30.4453125 152.615696,29.4398054 150.783606,27.8789537 C150.33458,27.4978657 150.126886,27.0469182 150.126886,26.5614333 C150.126886,26.2839572 150.196117,25.9719439 150.40342,25.7290052 C150.679955,25.3820621 151.060141,25.2085905 151.475138,25.2085905 C151.854933,25.2085905 152.26993,25.3820621 152.580884,25.590071 C154.516234,26.9425212 156.348324,27.6709448 158.836743,27.6709448 C161.705348,27.6709448 163.952043,26.5959706 163.952043,24.1336163 C163.952043,21.6367246 161.117859,20.8392264 157.592142,19.972261 C152.857419,18.7928898 150.611114,17.266968 150.611114,13.5216305 C150.611114,9.77590059 154.2397,7.34886853 158.249254,7.34886853 C161.428813,7.34886853 163.709929,8.25037122 165.230673,9.42934993 C165.68009,9.77590059 165.887393,10.1923108 165.887393,10.6432584 C165.887393,10.920342 165.818553,11.197818 165.645279,11.475294 C165.368744,11.8567745 164.954529,12.030246 164.504721,12.030246 C164.158955,12.030246 163.848001,11.9262416 163.571466,11.75277 C161.774579,10.6432584 160.184604,10.1228437 158.249254,10.1228437" id="Fill-18"></path>
                <path d="M29.9203933,5.24919181 C31.3697745,5.24919181 32.5449892,4.07397707 32.5449892,2.62459591 C32.5449892,1.1748371 31.3697745,0 29.9203933,0 C28.4710122,0 27.2957974,1.1748371 27.2957974,2.62459591 C27.2957974,4.07397707 28.4710122,5.24919181 29.9203933,5.24919181" id="Fill-21"></path>
            </g>
        </g>
    </g>
</svg>